<svg xmlns="http://www.w3.org/2000/svg" viewBox="0 0 48 48" width="48" height="48">
  <circle cx="24" cy="24" r="22" fill="#3296FA"/>
  <path fill="#fff" d="M34.4,22.3c-0.2,0.5-0.8,1.5-2.1,3.1l-0.1,0.1c-0.5,0.6-1.1,1.3-1.8,2.1h3.2c0.3,0,0.4,0.2,0.3,0.4 l-0.8,2.3c-0.1,0.2-0.3,0.4-0.5,0.4h-5.2l-0.6,1.7h4.4c0.3,0,0.4,0.2,0.3,0.4l-0.8,2.3c-0.1,0.2-0.3,0.4-0.5,0.4h-5.2 l-1.4,3.9c-0.1,0.2-0.3,0.4-0.5,0.4h-2.6c-0.3,0-0.4-0.2-0.3-0.4l1.4-3.9h-5.1c-0.3,0-0.4-0.2-0.3-0.4l0.8-2.3 c0.1-0.2,0.3-0.4,0.5-0.4h5.2l0.6-1.7h-4.4c-0.3,0-0.4-0.2-0.3-0.4l0.8-2.3c0.1-0.2,0.3-0.4,0.5-0.4h4.9 c1.1-1.3,2-2.4,2.4-3.2c0.6-1.1,0.3-1.5-0.8-1.5H17c-0.3,0-0.4-0.2-0.3-0.4l0.8-2.3c0.1-0.2,0.3-0.4,0.5-0.4h13.1 C33.6,18.3,35.4,19.5,34.4,22.3z"/>
</svg>
